<?xml version="1.0" encoding="utf-8"?>
<!-- Generator: Adobe Illustrator 17.0.0, net.redbear.redbearduo.data.SVG Export Plug-In . net.redbear.redbearduo.data.SVG Version: 6.00 Build 0)  -->
<!DOCTYPE svg PUBLIC "-//W3C//DTD net.redbear.redbearduo.data.SVG 1.0//EN" "http://www.w3.org/TR/2001/REC-net.redbear.redbearduo.data.SVG-20010904/DTD/svg10.dtd">
<svg version="1.0" xmlns="http://www.w3.org/2000/svg" xmlns:xlink="http://www.w3.org/1999/xlink" x="0px" y="0px" width="842px"
	 height="595px" viewBox="0 0 842 595" enable-background="new 0 0 842 595" xml:space="preserve">
<g id="图层_3" display="none">
	<rect x="231" y="154.5" display="inline" fill-rule="evenodd" clip-rule="evenodd" width="404" height="290"/>
</g>
<g id="图层_2" display="none">
</g>
<g id="Layer_1">
	<g>
		<path fill-rule="evenodd" clip-rule="evenodd" fill="none" stroke="#E3E53D" d="M259.029,18.131h260.943
			c6.663,0,12.112,5.45,12.112,12.112v514.141c0,6.661-5.45,12.112-12.112,12.112H259.029c-6.664,0-12.114-5.451-12.114-12.112
			V30.244C246.916,23.581,252.365,18.131,259.029,18.131z"/>
		<g>
			<path fill-rule="evenodd" clip-rule="evenodd" fill="#E3E53D" d="M261.112,115.332c5.268,0,9.539,4.271,9.539,9.539
				c0,5.269-4.271,9.54-9.539,9.54c-2.661,0-5.067-1.09-6.797-2.846l-7.4,4.458V116.17l6.506,3.057
				C255.157,116.865,257.955,115.332,261.112,115.332z"/>
			<path fill-rule="evenodd" clip-rule="evenodd" fill="#E3E53D" d="M261.112,150.929c5.268,0,9.539,4.271,9.539,9.54
				c0,5.268-4.271,9.539-9.539,9.539c-2.661,0-5.067-1.088-6.797-2.844l-7.4,4.456v-19.854l6.506,3.058
				C255.157,152.461,257.955,150.929,261.112,150.929z"/>
			<path fill-rule="evenodd" clip-rule="evenodd" fill="#E3E53D" d="M261.112,186.525c5.268,0,9.539,4.271,9.539,9.54
				c0,5.268-4.271,9.539-9.539,9.539c-2.661,0-5.067-1.09-6.797-2.845l-7.4,4.456v-19.853l6.506,3.057
				C255.157,188.059,257.955,186.525,261.112,186.525z"/>
			<path fill-rule="evenodd" clip-rule="evenodd" fill="#E3E53D" d="M261.112,222.123c5.268,0,9.539,4.271,9.539,9.539
				c0,5.269-4.271,9.54-9.539,9.54c-2.661,0-5.067-1.09-6.797-2.846l-7.4,4.458v-19.853l6.506,3.057
				C255.157,223.656,257.955,222.123,261.112,222.123z"/>
			<path fill-rule="evenodd" clip-rule="evenodd" fill="#E3E53D" d="M261.112,257.719c5.268,0,9.539,4.271,9.539,9.539
				c0,5.269-4.271,9.54-9.539,9.54c-2.661,0-5.067-1.09-6.797-2.844l-7.4,4.456v-19.854l6.506,3.058
				C255.157,259.251,257.955,257.719,261.112,257.719z"/>
			<path fill-rule="evenodd" clip-rule="evenodd" fill="#E3E53D" d="M261.112,293.316c5.268,0,9.539,4.271,9.539,9.54
				c0,5.268-4.271,9.539-9.539,9.539c-2.661,0-5.067-1.09-6.797-2.846l-7.4,4.458v-19.853l6.506,3.057
				C255.157,294.85,257.955,293.316,261.112,293.316z"/>
			<path fill-rule="evenodd" clip-rule="evenodd" fill="#E3E53D" d="M261.112,328.911c5.268,0,9.539,4.273,9.539,9.541
				c0,5.267-4.271,9.542-9.539,9.542c-2.661,0-5.067-1.09-6.797-2.848l-7.4,4.458V329.75l6.506,3.058
				C255.157,330.445,257.955,328.911,261.112,328.911z"/>
			<path fill-rule="evenodd" clip-rule="evenodd" fill="#E3E53D" d="M261.112,364.51c5.268,0,9.539,4.271,9.539,9.539
				c0,5.271-4.271,9.542-9.539,9.542c-2.661,0-5.067-1.09-6.797-2.847l-7.4,4.458v-19.855l6.506,3.058
				C255.157,366.042,257.955,364.51,261.112,364.51z"/>
			<path fill-rule="evenodd" clip-rule="evenodd" fill="#E3E53D" d="M261.112,400.107c5.268,0,9.539,4.271,9.539,9.539
				c0,5.271-4.271,9.539-9.539,9.539c-2.661,0-5.067-1.086-6.797-2.844l-7.4,4.458v-19.854l6.506,3.058
				C255.157,401.639,257.955,400.107,261.112,400.107z"/>
			<path fill-rule="evenodd" clip-rule="evenodd" fill="#E3E53D" d="M261.112,435.703c5.268,0,9.539,4.271,9.539,9.539
				c0,5.268-4.271,9.542-9.539,9.542c-2.661,0-5.067-1.09-6.797-2.847l-7.4,4.458V436.54l6.506,3.058
				C255.157,437.236,257.955,435.703,261.112,435.703z"/>
			<path fill-rule="evenodd" clip-rule="evenodd" fill="#E3E53D" d="M261.112,471.3c5.268,0,9.539,4.271,9.539,9.539
				c0,5.27-4.271,9.542-9.539,9.542c-2.661,0-5.067-1.09-6.797-2.848l-7.4,4.458v-19.854l6.506,3.058
				C255.157,472.832,257.955,471.3,261.112,471.3z"/>
			<path fill-rule="evenodd" clip-rule="evenodd" fill="#E3E53D" d="M261.112,506.897c5.268,0,9.539,4.271,9.539,9.539
				c0,5.271-4.271,9.539-9.539,9.539c-2.661,0-5.067-1.086-6.797-2.844l-7.4,4.458v-19.854l6.506,3.058
				C255.157,508.429,257.955,506.897,261.112,506.897z"/>
		</g>
		<g>
			<path fill-rule="evenodd" clip-rule="evenodd" fill="#E3E53D" d="M517.888,115.332c-5.268,0-9.539,4.271-9.539,9.539
				c0,5.269,4.271,9.54,9.539,9.54c2.661,0,5.067-1.09,6.797-2.846l7.4,4.458V116.17l-6.506,3.057
				C523.843,116.865,521.045,115.332,517.888,115.332z"/>
			<path fill-rule="evenodd" clip-rule="evenodd" fill="#E3E53D" d="M517.888,150.929c-5.268,0-9.539,4.271-9.539,9.54
				c0,5.268,4.271,9.539,9.539,9.539c2.661,0,5.067-1.088,6.797-2.844l7.4,4.456v-19.854l-6.506,3.058
				C523.843,152.461,521.045,150.929,517.888,150.929z"/>
			<path fill-rule="evenodd" clip-rule="evenodd" fill="#E3E53D" d="M517.888,186.525c-5.268,0-9.539,4.271-9.539,9.54
				c0,5.268,4.271,9.539,9.539,9.539c2.661,0,5.067-1.09,6.797-2.845l7.4,4.456v-19.853l-6.506,3.057
				C523.843,188.059,521.045,186.525,517.888,186.525z"/>
			<path fill-rule="evenodd" clip-rule="evenodd" fill="#E3E53D" d="M517.888,222.123c-5.268,0-9.539,4.271-9.539,9.539
				c0,5.269,4.271,9.54,9.539,9.54c2.661,0,5.067-1.09,6.797-2.846l7.4,4.458v-19.853l-6.506,3.057
				C523.843,223.656,521.045,222.123,517.888,222.123z"/>
			<path fill-rule="evenodd" clip-rule="evenodd" fill="#E3E53D" d="M517.888,257.719c-5.268,0-9.539,4.271-9.539,9.539
				c0,5.269,4.271,9.54,9.539,9.54c2.661,0,5.067-1.09,6.797-2.844l7.4,4.456v-19.854l-6.506,3.058
				C523.843,259.251,521.045,257.719,517.888,257.719z"/>
			<path fill-rule="evenodd" clip-rule="evenodd" fill="#E3E53D" d="M517.888,293.316c-5.268,0-9.539,4.271-9.539,9.54
				c0,5.268,4.271,9.539,9.539,9.539c2.661,0,5.067-1.09,6.797-2.846l7.4,4.458v-19.853l-6.506,3.057
				C523.843,294.85,521.045,293.316,517.888,293.316z"/>
			<path fill-rule="evenodd" clip-rule="evenodd" fill="#E3E53D" d="M517.888,328.911c-5.268,0-9.539,4.273-9.539,9.541
				c0,5.267,4.271,9.542,9.539,9.542c2.661,0,5.067-1.09,6.797-2.848l7.4,4.458V329.75l-6.506,3.058
				C523.843,330.445,521.045,328.911,517.888,328.911z"/>
			<path fill-rule="evenodd" clip-rule="evenodd" fill="#E3E53D" d="M517.888,364.51c-5.268,0-9.539,4.271-9.539,9.539
				c0,5.271,4.271,9.542,9.539,9.542c2.661,0,5.067-1.09,6.797-2.847l7.4,4.458v-19.855l-6.506,3.058
				C523.843,366.042,521.045,364.51,517.888,364.51z"/>
			<path fill-rule="evenodd" clip-rule="evenodd" fill="#E3E53D" d="M517.888,400.107c-5.268,0-9.539,4.271-9.539,9.539
				c0,5.271,4.271,9.539,9.539,9.539c2.661,0,5.067-1.086,6.797-2.844l7.4,4.458v-19.854l-6.506,3.058
				C523.843,401.639,521.045,400.107,517.888,400.107z"/>
			<path fill-rule="evenodd" clip-rule="evenodd" fill="#E3E53D" d="M517.888,435.703c-5.268,0-9.539,4.271-9.539,9.539
				c0,5.268,4.271,9.542,9.539,9.542c2.661,0,5.067-1.09,6.797-2.847l7.4,4.458V436.54l-6.506,3.058
				C523.843,437.236,521.045,435.703,517.888,435.703z"/>
			<path fill-rule="evenodd" clip-rule="evenodd" fill="#E3E53D" d="M517.888,471.3c-5.268,0-9.539,4.271-9.539,9.539
				c0,5.27,4.271,9.542,9.539,9.542c2.661,0,5.067-1.09,6.797-2.848l7.4,4.458v-19.854l-6.506,3.058
				C523.843,472.832,521.045,471.3,517.888,471.3z"/>
			<path fill-rule="evenodd" clip-rule="evenodd" fill="#E3E53D" d="M517.888,506.897c-5.268,0-9.539,4.271-9.539,9.539
				c0,5.271,4.271,9.539,9.539,9.539c2.661,0,5.067-1.086,6.797-2.844l7.4,4.458v-19.854l-6.506,3.058
				C523.843,508.429,521.045,506.897,517.888,506.897z"/>
		</g>
		<path fill-rule="evenodd" clip-rule="evenodd" fill="none" stroke="#ED2123" d="M514.659,42.755
			c1.02,2.682,1.594,5.582,1.594,8.615c0,13-10.54,23.54-23.54,23.54c-13,0-23.54-10.54-23.54-23.54
			c0-3.046,0.579-5.958,1.652-8.633c-2.563-1.369-4.325-4.088-4.325-7.217c0-4.506,3.654-8.159,8.159-8.159
			c2.727,0,5.141,1.336,6.625,3.407c3.386-1.868,7.283-2.939,11.429-2.939c4.172,0,8.089,1.085,11.512,2.956
			c1.504-2.088,3.918-3.424,6.645-3.424c4.506,0,8.159,3.653,8.159,8.159C519.029,38.649,517.268,41.367,514.659,42.755
			L514.659,42.755z"/>
		<path fill-rule="evenodd" clip-rule="evenodd" fill="#ED2123" d="M492.713,62.692c6.056-0.141,8.13-5.698,7.134-7.492
			c-0.996-1.793-3.218-1.851-7.134-1.863c-3.916,0.012-6.137,0.071-7.134,1.863C484.585,56.994,486.658,62.551,492.713,62.692z"/>
		
			<rect x="303.017" y="71.299" fill-rule="evenodd" clip-rule="evenodd" fill="none" stroke="#E3E53D" stroke-miterlimit="10" width="168.626" height="168.885"/>
		
			<rect x="313.182" y="81.481" fill-rule="evenodd" clip-rule="evenodd" fill="none" stroke="#E3E53D" stroke-miterlimit="10" width="148.296" height="148.522"/>
		<g>
			<path fill-rule="evenodd" clip-rule="evenodd" fill="#E3E53D" d="M331.587,241.568c0.006-0.114,0.009-0.227,0.009-0.341
				c0-2.913-1.78-5.275-3.976-5.275c-2.197,0-3.978,2.362-3.978,5.275c0,0.114,0.005,0.228,0.009,0.341H331.587z"/>
			<rect x="323.649" y="241.568" fill-rule="evenodd" clip-rule="evenodd" fill="#E3E53D" width="7.936" height="4.042"/>
			<path fill-rule="evenodd" clip-rule="evenodd" fill="#E3E53D" d="M343.962,241.568c0.006-0.114,0.009-0.227,0.009-0.341
				c0-2.913-1.78-5.275-3.976-5.275c-2.196,0-3.978,2.362-3.978,5.275c0,0.114,0.004,0.228,0.009,0.341H343.962z"/>
			<rect x="336.027" y="241.568" fill-rule="evenodd" clip-rule="evenodd" fill="#E3E53D" width="7.936" height="4.042"/>
			<path fill-rule="evenodd" clip-rule="evenodd" fill="#E3E53D" d="M356.34,241.568c0.005-0.114,0.008-0.227,0.008-0.341
				c0-2.913-1.781-5.275-3.976-5.275c-2.196,0-3.976,2.362-3.976,5.275c0,0.114,0.003,0.228,0.009,0.341H356.34z"/>
			<rect x="348.402" y="241.568" fill-rule="evenodd" clip-rule="evenodd" fill="#E3E53D" width="7.936" height="4.042"/>
			<path fill-rule="evenodd" clip-rule="evenodd" fill="#E3E53D" d="M368.716,241.568c0.004-0.114,0.009-0.227,0.009-0.341
				c0-2.913-1.78-5.275-3.976-5.275c-2.197,0-3.978,2.362-3.978,5.275c0,0.114,0.003,0.228,0.009,0.341H368.716z"/>
			<rect x="360.778" y="241.568" fill-rule="evenodd" clip-rule="evenodd" fill="#E3E53D" width="7.936" height="4.042"/>
			<path fill-rule="evenodd" clip-rule="evenodd" fill="#E3E53D" d="M381.091,241.568c0.006-0.114,0.009-0.227,0.009-0.341
				c0-2.913-1.78-5.275-3.976-5.275c-2.196,0-3.978,2.362-3.978,5.275c0,0.114,0.004,0.228,0.009,0.341H381.091z"/>
			<rect x="373.155" y="241.568" fill-rule="evenodd" clip-rule="evenodd" fill="#E3E53D" width="7.936" height="4.042"/>
			<path fill-rule="evenodd" clip-rule="evenodd" fill="#E3E53D" d="M393.467,241.568c0.006-0.114,0.009-0.227,0.009-0.341
				c0-2.913-1.781-5.275-3.976-5.275c-2.196,0-3.976,2.362-3.976,5.275c0,0.114,0.003,0.228,0.009,0.341H393.467z"/>
			<rect x="385.531" y="241.568" fill-rule="evenodd" clip-rule="evenodd" fill="#E3E53D" width="7.936" height="4.042"/>
			<path fill-rule="evenodd" clip-rule="evenodd" fill="#E3E53D" d="M405.845,241.568c0.004-0.114,0.009-0.227,0.009-0.341
				c0-2.913-1.782-5.275-3.978-5.275c-2.196,0-3.976,2.362-3.976,5.275c0,0.114,0.003,0.228,0.009,0.341H405.845z"/>
			<rect x="397.907" y="241.568" fill-rule="evenodd" clip-rule="evenodd" fill="#E3E53D" width="7.936" height="4.042"/>
			<path fill-rule="evenodd" clip-rule="evenodd" fill="#E3E53D" d="M418.22,241.568c0.005-0.114,0.009-0.227,0.009-0.341
				c0-2.913-1.78-5.275-3.978-5.275c-2.196,0-3.976,2.362-3.976,5.275c0,0.114,0.003,0.228,0.009,0.341H418.22z"/>
			<rect x="410.283" y="241.568" fill-rule="evenodd" clip-rule="evenodd" fill="#E3E53D" width="7.936" height="4.042"/>
			<path fill-rule="evenodd" clip-rule="evenodd" fill="#E3E53D" d="M430.596,241.568c0.006-0.114,0.009-0.227,0.009-0.341
				c0-2.913-1.781-5.275-3.976-5.275s-3.976,2.362-3.976,5.275c0,0.114,0.003,0.228,0.007,0.341H430.596z"/>
			<rect x="422.66" y="241.568" fill-rule="evenodd" clip-rule="evenodd" fill="#E3E53D" width="7.936" height="4.042"/>
			<path fill-rule="evenodd" clip-rule="evenodd" fill="#E3E53D" d="M442.974,241.568c0.004-0.114,0.007-0.227,0.007-0.341
				c0-2.913-1.78-5.275-3.976-5.275c-2.196,0-3.976,2.362-3.976,5.275c0,0.114,0.003,0.228,0.009,0.341H442.974z"/>
			<rect x="435.036" y="241.568" fill-rule="evenodd" clip-rule="evenodd" fill="#E3E53D" width="7.936" height="4.042"/>
			<path fill-rule="evenodd" clip-rule="evenodd" fill="#E3E53D" d="M455.349,241.568c0.005-0.114,0.009-0.227,0.009-0.341
				c0-2.913-1.78-5.275-3.978-5.275c-2.196,0-3.976,2.362-3.976,5.275c0,0.114,0.003,0.228,0.009,0.341H455.349z"/>
			<rect x="447.412" y="241.568" fill-rule="evenodd" clip-rule="evenodd" fill="#E3E53D" width="7.936" height="4.042"/>
		</g>
		<g>
			<path fill-rule="evenodd" clip-rule="evenodd" fill="#E3E53D" d="M331.588,69.579c0.006,0.121,0.009,0.241,0.009,0.362
				c0,3.088-1.78,5.592-3.976,5.592c-2.197,0-3.978-2.504-3.978-5.592c0-0.121,0.005-0.241,0.009-0.362H331.588z"/>
			<rect x="323.65" y="65.295" fill-rule="evenodd" clip-rule="evenodd" fill="#E3E53D" width="7.936" height="4.284"/>
			<path fill-rule="evenodd" clip-rule="evenodd" fill="#E3E53D" d="M343.963,69.579c0.006,0.121,0.009,0.241,0.009,0.362
				c0,3.088-1.78,5.592-3.976,5.592s-3.978-2.504-3.978-5.592c0-0.121,0.004-0.241,0.009-0.362H343.963z"/>
			<rect x="336.027" y="65.295" fill-rule="evenodd" clip-rule="evenodd" fill="#E3E53D" width="7.936" height="4.284"/>
			<path fill-rule="evenodd" clip-rule="evenodd" fill="#E3E53D" d="M356.341,69.579c0.005,0.121,0.008,0.241,0.008,0.362
				c0,3.088-1.781,5.592-3.976,5.592c-2.196,0-3.976-2.504-3.976-5.592c0-0.121,0.003-0.241,0.009-0.362H356.341z"/>
			<rect x="348.403" y="65.295" fill-rule="evenodd" clip-rule="evenodd" fill="#E3E53D" width="7.936" height="4.284"/>
			<path fill-rule="evenodd" clip-rule="evenodd" fill="#E3E53D" d="M368.717,69.579c0.004,0.121,0.009,0.241,0.009,0.362
				c0,3.088-1.78,5.592-3.976,5.592c-2.197,0-3.978-2.504-3.978-5.592c0-0.121,0.003-0.241,0.009-0.362H368.717z"/>
			<rect x="360.779" y="65.295" fill-rule="evenodd" clip-rule="evenodd" fill="#E3E53D" width="7.936" height="4.284"/>
			<path fill-rule="evenodd" clip-rule="evenodd" fill="#E3E53D" d="M381.092,69.579c0.006,0.121,0.009,0.241,0.009,0.362
				c0,3.088-1.78,5.592-3.976,5.592s-3.978-2.504-3.978-5.592c0-0.121,0.004-0.241,0.009-0.362H381.092z"/>
			<rect x="373.156" y="65.295" fill-rule="evenodd" clip-rule="evenodd" fill="#E3E53D" width="7.936" height="4.284"/>
			<path fill-rule="evenodd" clip-rule="evenodd" fill="#E3E53D" d="M393.468,69.579c0.006,0.121,0.009,0.241,0.009,0.362
				c0,3.088-1.781,5.592-3.976,5.592s-3.976-2.504-3.976-5.592c0-0.121,0.003-0.241,0.009-0.362H393.468z"/>
			<rect x="385.532" y="65.295" fill-rule="evenodd" clip-rule="evenodd" fill="#E3E53D" width="7.936" height="4.284"/>
			<path fill-rule="evenodd" clip-rule="evenodd" fill="#E3E53D" d="M405.846,69.579c0.004,0.121,0.009,0.241,0.009,0.362
				c0,3.088-1.782,5.592-3.978,5.592c-2.196,0-3.976-2.504-3.976-5.592c0-0.121,0.003-0.241,0.009-0.362H405.846z"/>
			<rect x="397.908" y="65.295" fill-rule="evenodd" clip-rule="evenodd" fill="#E3E53D" width="7.936" height="4.284"/>
			<path fill-rule="evenodd" clip-rule="evenodd" fill="#E3E53D" d="M418.221,69.579c0.005,0.121,0.009,0.241,0.009,0.362
				c0,3.088-1.78,5.592-3.978,5.592c-2.196,0-3.976-2.504-3.976-5.592c0-0.121,0.003-0.241,0.009-0.362H418.221z"/>
			<rect x="410.284" y="65.295" fill-rule="evenodd" clip-rule="evenodd" fill="#E3E53D" width="7.936" height="4.284"/>
			<path fill-rule="evenodd" clip-rule="evenodd" fill="#E3E53D" d="M430.597,69.579c0.006,0.121,0.009,0.241,0.009,0.362
				c0,3.088-1.781,5.592-3.976,5.592s-3.976-2.504-3.976-5.592c0-0.121,0.003-0.241,0.007-0.362H430.597z"/>
			<rect x="422.661" y="65.295" fill-rule="evenodd" clip-rule="evenodd" fill="#E3E53D" width="7.936" height="4.284"/>
			<path fill-rule="evenodd" clip-rule="evenodd" fill="#E3E53D" d="M442.975,69.579c0.004,0.121,0.007,0.241,0.007,0.362
				c0,3.088-1.78,5.592-3.976,5.592s-3.976-2.504-3.976-5.592c0-0.121,0.003-0.241,0.009-0.362H442.975z"/>
			<rect x="435.037" y="65.295" fill-rule="evenodd" clip-rule="evenodd" fill="#E3E53D" width="7.936" height="4.284"/>
			<path fill-rule="evenodd" clip-rule="evenodd" fill="#E3E53D" d="M455.35,69.579c0.005,0.121,0.009,0.241,0.009,0.362
				c0,3.088-1.78,5.592-3.978,5.592c-2.196,0-3.976-2.504-3.976-5.592c0-0.121,0.003-0.241,0.009-0.362H455.35z"/>
			<rect x="447.413" y="65.295" fill-rule="evenodd" clip-rule="evenodd" fill="#E3E53D" width="7.936" height="4.284"/>
		</g>
		<path fill-rule="evenodd" clip-rule="evenodd" fill="none" stroke="#E3E53D" stroke-miterlimit="10" d="M333.114,563.233
			c-0.554,0.19-1.052,0.551-1.404,1.062l-5.275,7.667c-0.871,1.267-0.525,2.998,0.769,3.85l0,0c1.294,0.852,3.064,0.512,3.936-0.753
			l4.545-6.61c0.588,0.277,1.246,0.431,1.937,0.431h1.388v3.853c0,2.26,1.804,4.109,4.009,4.109h86.766
			c2.205,0,4.008-1.848,4.008-4.109v-3.853h0.215l4.252,6.179c0.87,1.264,2.641,1.604,3.934,0.753l0,0
			c1.295-0.852,1.641-2.583,0.771-3.85l-3.773-5.484c0.317-0.602,0.497-1.285,0.497-2.005V498.71c0-2.426-2.028-4.41-4.508-4.41
			h-97.559c-2.479,0-4.508,1.983-4.508,4.41V563.233z"/>
		<path fill-rule="evenodd" clip-rule="evenodd" fill="#E3E53D" d="M413.696,494.3h-6.906v18.909h4.396h2.51h9.917
			c1.901,0,3.454-1.517,3.454-3.377l0,0c0-1.857-1.553-3.377-3.454-3.377h-9.917V494.3z"/>
		<path fill-rule="evenodd" clip-rule="evenodd" fill="#E3E53D" d="M359.32,494.3h6.907v18.909h-4.395h-2.512h-9.917
			c-1.899,0-3.452-1.517-3.452-3.377l0,0c0-1.857,1.553-3.377,3.452-3.377h9.917V494.3z"/>
		<g>
			<path fill-rule="evenodd" clip-rule="evenodd" fill="#E3E53D" d="M420.82,533.118h0.002c2.658,0,4.832,2.128,4.832,4.729v6.505
				c1.321,1.243,2.145,2.989,2.145,4.922c0,3.772-3.124,6.827-6.979,6.827c-3.854,0-6.979-3.055-6.979-6.827
				c0-1.932,0.823-3.678,2.145-4.922v-6.505C415.985,535.246,418.16,533.118,420.82,533.118z"/>
			<path fill-rule="evenodd" clip-rule="evenodd" fill="#E3E53D" d="M418.806,557.505h4.028c1.213,0,2.203,0.99,2.203,2.204l0,0
				c0,1.213-0.99,2.203-2.203,2.203h-4.028c-1.211,0-2.203-0.99-2.203-2.203l0,0C416.603,558.495,417.594,557.505,418.806,557.505z"
				/>
		</g>
		<g>
			<path fill-rule="evenodd" clip-rule="evenodd" fill="#E3E53D" d="M352.449,533.118L352.449,533.118
				c-2.659,0-4.836,2.128-4.836,4.729v6.505c-1.32,1.243-2.143,2.989-2.143,4.922c0,3.772,3.124,6.827,6.979,6.827
				s6.979-3.055,6.979-6.827c0-1.932-0.823-3.678-2.145-4.922v-6.505C357.284,535.246,355.109,533.118,352.449,533.118z"/>
			<path fill-rule="evenodd" clip-rule="evenodd" fill="#E3E53D" d="M354.462,557.505h-4.026c-1.212,0-2.203,0.99-2.203,2.204l0,0
				c0,1.213,0.992,2.203,2.203,2.203h4.026c1.213,0,2.205-0.99,2.205-2.203l0,0C356.666,558.495,355.675,557.505,354.462,557.505z"
				/>
		</g>
		<g>
			<path fill-rule="evenodd" clip-rule="evenodd" fill="#E3E53D" d="M473.736,213.647c-0.13-0.006-0.261-0.009-0.392-0.009
				c-3.343,0-6.053,1.78-6.053,3.976c0,2.197,2.71,3.978,6.053,3.978c0.131,0,0.261-0.005,0.392-0.009V213.647z"/>
			<rect x="473.736" y="213.649" fill-rule="evenodd" clip-rule="evenodd" fill="#E3E53D" width="4.637" height="7.936"/>
			<path fill-rule="evenodd" clip-rule="evenodd" fill="#E3E53D" d="M473.736,201.272c-0.13-0.006-0.261-0.009-0.392-0.009
				c-3.343,0-6.053,1.78-6.053,3.976c0,2.196,2.71,3.978,6.053,3.978c0.131,0,0.261-0.004,0.392-0.009V201.272z"/>
			<rect x="473.736" y="201.272" fill-rule="evenodd" clip-rule="evenodd" fill="#E3E53D" width="4.637" height="7.936"/>
			<path fill-rule="evenodd" clip-rule="evenodd" fill="#E3E53D" d="M473.736,188.894c-0.13-0.005-0.261-0.008-0.392-0.008
				c-3.343,0-6.053,1.781-6.053,3.976c0,2.196,2.71,3.976,6.053,3.976c0.131,0,0.261-0.003,0.392-0.009V188.894z"/>
			<rect x="473.736" y="188.896" fill-rule="evenodd" clip-rule="evenodd" fill="#E3E53D" width="4.637" height="7.936"/>
			<path fill-rule="evenodd" clip-rule="evenodd" fill="#E3E53D" d="M473.736,176.518c-0.13-0.004-0.261-0.009-0.392-0.009
				c-3.343,0-6.053,1.78-6.053,3.976c0,2.197,2.71,3.978,6.053,3.978c0.131,0,0.261-0.003,0.392-0.009V176.518z"/>
			<rect x="473.736" y="176.52" fill-rule="evenodd" clip-rule="evenodd" fill="#E3E53D" width="4.637" height="7.936"/>
			<path fill-rule="evenodd" clip-rule="evenodd" fill="#E3E53D" d="M473.736,164.143c-0.13-0.006-0.261-0.009-0.392-0.009
				c-3.343,0-6.053,1.78-6.053,3.976c0,2.196,2.71,3.978,6.053,3.978c0.131,0,0.261-0.004,0.392-0.009V164.143z"/>
			<rect x="473.736" y="164.143" fill-rule="evenodd" clip-rule="evenodd" fill="#E3E53D" width="4.637" height="7.936"/>
			<path fill-rule="evenodd" clip-rule="evenodd" fill="#E3E53D" d="M473.736,151.767c-0.13-0.006-0.261-0.009-0.392-0.009
				c-3.343,0-6.053,1.781-6.053,3.976c0,2.196,2.71,3.976,6.053,3.976c0.131,0,0.261-0.003,0.392-0.009V151.767z"/>
			<rect x="473.736" y="151.767" fill-rule="evenodd" clip-rule="evenodd" fill="#E3E53D" width="4.637" height="7.936"/>
			<path fill-rule="evenodd" clip-rule="evenodd" fill="#E3E53D" d="M473.736,139.389c-0.13-0.004-0.261-0.009-0.392-0.009
				c-3.343,0-6.053,1.782-6.053,3.978c0,2.196,2.71,3.976,6.053,3.976c0.131,0,0.261-0.003,0.392-0.009V139.389z"/>
			<rect x="473.736" y="139.391" fill-rule="evenodd" clip-rule="evenodd" fill="#E3E53D" width="4.637" height="7.936"/>
			<path fill-rule="evenodd" clip-rule="evenodd" fill="#E3E53D" d="M473.736,127.014c-0.13-0.005-0.261-0.009-0.392-0.009
				c-3.343,0-6.053,1.78-6.053,3.978c0,2.196,2.71,3.976,6.053,3.976c0.131,0,0.261-0.003,0.392-0.009V127.014z"/>
			<rect x="473.736" y="127.015" fill-rule="evenodd" clip-rule="evenodd" fill="#E3E53D" width="4.637" height="7.936"/>
			<path fill-rule="evenodd" clip-rule="evenodd" fill="#E3E53D" d="M473.736,114.638c-0.13-0.006-0.261-0.009-0.392-0.009
				c-3.343,0-6.053,1.781-6.053,3.976s2.71,3.976,6.053,3.976c0.131,0,0.261-0.003,0.392-0.007V114.638z"/>
			<rect x="473.736" y="114.638" fill-rule="evenodd" clip-rule="evenodd" fill="#E3E53D" width="4.637" height="7.936"/>
			<path fill-rule="evenodd" clip-rule="evenodd" fill="#E3E53D" d="M473.736,102.26c-0.13-0.004-0.261-0.007-0.392-0.007
				c-3.343,0-6.053,1.78-6.053,3.976s2.71,3.976,6.053,3.976c0.131,0,0.261-0.003,0.392-0.009V102.26z"/>
			<rect x="473.736" y="102.262" fill-rule="evenodd" clip-rule="evenodd" fill="#E3E53D" width="4.637" height="7.936"/>
			<path fill-rule="evenodd" clip-rule="evenodd" fill="#E3E53D" d="M473.736,89.885c-0.13-0.005-0.261-0.009-0.392-0.009
				c-3.343,0-6.053,1.78-6.053,3.978c0,2.196,2.71,3.976,6.053,3.976c0.131,0,0.261-0.003,0.392-0.009V89.885z"/>
			<rect x="473.736" y="89.886" fill-rule="evenodd" clip-rule="evenodd" fill="#E3E53D" width="4.637" height="7.936"/>
		</g>
		<g>
			<path fill-rule="evenodd" clip-rule="evenodd" fill="#E3E53D" d="M301.939,213.655c0.116-0.006,0.233-0.009,0.349-0.009
				c2.982,0,5.399,1.78,5.399,3.976c0,2.197-2.418,3.978-5.399,3.978c-0.117,0-0.233-0.005-0.349-0.009V213.655z"/>
			<rect x="297.803" y="213.656" fill-rule="evenodd" clip-rule="evenodd" fill="#E3E53D" width="4.137" height="7.936"/>
			<path fill-rule="evenodd" clip-rule="evenodd" fill="#E3E53D" d="M301.939,201.279c0.116-0.006,0.233-0.009,0.349-0.009
				c2.982,0,5.399,1.78,5.399,3.976c0,2.196-2.418,3.978-5.399,3.978c-0.117,0-0.233-0.004-0.349-0.009V201.279z"/>
			<rect x="297.803" y="201.279" fill-rule="evenodd" clip-rule="evenodd" fill="#E3E53D" width="4.137" height="7.936"/>
			<path fill-rule="evenodd" clip-rule="evenodd" fill="#E3E53D" d="M301.939,188.902c0.116-0.005,0.233-0.008,0.349-0.008
				c2.982,0,5.399,1.781,5.399,3.976c0,2.196-2.418,3.976-5.399,3.976c-0.117,0-0.233-0.003-0.349-0.009V188.902z"/>
			<rect x="297.803" y="188.903" fill-rule="evenodd" clip-rule="evenodd" fill="#E3E53D" width="4.137" height="7.936"/>
			<path fill-rule="evenodd" clip-rule="evenodd" fill="#E3E53D" d="M301.939,176.526c0.116-0.004,0.233-0.009,0.349-0.009
				c2.982,0,5.399,1.78,5.399,3.976c0,2.197-2.418,3.978-5.399,3.978c-0.117,0-0.233-0.003-0.349-0.009V176.526z"/>
			<rect x="297.803" y="176.527" fill-rule="evenodd" clip-rule="evenodd" fill="#E3E53D" width="4.137" height="7.936"/>
			<path fill-rule="evenodd" clip-rule="evenodd" fill="#E3E53D" d="M301.939,164.15c0.116-0.006,0.233-0.009,0.349-0.009
				c2.982,0,5.399,1.78,5.399,3.976c0,2.196-2.418,3.978-5.399,3.978c-0.117,0-0.233-0.004-0.349-0.009V164.15z"/>
			<rect x="297.803" y="164.15" fill-rule="evenodd" clip-rule="evenodd" fill="#E3E53D" width="4.137" height="7.936"/>
			<path fill-rule="evenodd" clip-rule="evenodd" fill="#E3E53D" d="M301.939,151.774c0.116-0.006,0.233-0.009,0.349-0.009
				c2.982,0,5.399,1.781,5.399,3.976c0,2.196-2.418,3.976-5.399,3.976c-0.117,0-0.233-0.003-0.349-0.009V151.774z"/>
			<rect x="297.803" y="151.774" fill-rule="evenodd" clip-rule="evenodd" fill="#E3E53D" width="4.137" height="7.936"/>
			<path fill-rule="evenodd" clip-rule="evenodd" fill="#E3E53D" d="M301.939,139.397c0.116-0.004,0.233-0.009,0.349-0.009
				c2.982,0,5.399,1.782,5.399,3.978c0,2.196-2.418,3.976-5.399,3.976c-0.117,0-0.233-0.003-0.349-0.009V139.397z"/>
			<rect x="297.803" y="139.398" fill-rule="evenodd" clip-rule="evenodd" fill="#E3E53D" width="4.137" height="7.936"/>
			<path fill-rule="evenodd" clip-rule="evenodd" fill="#E3E53D" d="M301.939,127.021c0.116-0.005,0.233-0.009,0.349-0.009
				c2.982,0,5.399,1.78,5.399,3.978c0,2.196-2.418,3.976-5.399,3.976c-0.117,0-0.233-0.003-0.349-0.009V127.021z"/>
			<rect x="297.803" y="127.023" fill-rule="evenodd" clip-rule="evenodd" fill="#E3E53D" width="4.137" height="7.936"/>
			<path fill-rule="evenodd" clip-rule="evenodd" fill="#E3E53D" d="M301.939,114.645c0.116-0.006,0.233-0.009,0.349-0.009
				c2.982,0,5.399,1.781,5.399,3.976s-2.418,3.976-5.399,3.976c-0.117,0-0.233-0.003-0.349-0.007V114.645z"/>
			<rect x="297.803" y="114.645" fill-rule="evenodd" clip-rule="evenodd" fill="#E3E53D" width="4.137" height="7.936"/>
			<path fill-rule="evenodd" clip-rule="evenodd" fill="#E3E53D" d="M301.939,102.268c0.116-0.004,0.233-0.007,0.349-0.007
				c2.982,0,5.399,1.78,5.399,3.976s-2.418,3.976-5.399,3.976c-0.117,0-0.233-0.003-0.349-0.009V102.268z"/>
			<rect x="297.803" y="102.269" fill-rule="evenodd" clip-rule="evenodd" fill="#E3E53D" width="4.137" height="7.936"/>
			<path fill-rule="evenodd" clip-rule="evenodd" fill="#E3E53D" d="M301.939,89.892c0.116-0.005,0.233-0.009,0.349-0.009
				c2.982,0,5.399,1.78,5.399,3.978c0,2.196-2.418,3.976-5.399,3.976c-0.117,0-0.233-0.003-0.349-0.009V89.892z"/>
			<rect x="297.803" y="89.894" fill-rule="evenodd" clip-rule="evenodd" fill="#E3E53D" width="4.137" height="7.936"/>
		</g>
	</g>
</g>
</svg>
