<?xml version="1.0" encoding="utf-8"?>
<!-- Generator: Adobe Illustrator 17.0.0, net.redbear.redbearduo.data.SVG Export Plug-In . net.redbear.redbearduo.data.SVG Version: 6.00 Build 0)  -->
<!DOCTYPE svg PUBLIC "-//W3C//DTD net.redbear.redbearduo.data.SVG 1.1//EN" "http://www.w3.org/Graphics/net.redbear.redbearduo.data.SVG/1.1/DTD/svg11.dtd">
<svg version="1.1" id="图层_1" xmlns="http://www.w3.org/2000/svg" xmlns:xlink="http://www.w3.org/1999/xlink" x="0px" y="0px"
	 width="100px" height="100px" viewBox="0 0 100 100" enable-background="new 0 0 100 100" xml:space="preserve">
<path fill-rule="evenodd" clip-rule="evenodd" fill="#FFFFFF" stroke="#C30D23" stroke-miterlimit="10" d="M59.804,39.5
	c0.546,1.439,0.855,2.994,0.855,4.621c0,6.97-5.652,12.622-12.624,12.622c-6.971,0-12.622-5.652-12.622-12.622
	c0-1.635,0.31-3.197,0.887-4.63c-1.377-0.735-2.321-2.191-2.321-3.869c0-2.417,1.959-4.376,4.376-4.376
	c1.461,0,2.757,0.717,3.552,1.827c1.816-1,3.905-1.576,6.129-1.576c2.238,0,4.338,0.582,6.172,1.586
	c0.808-1.12,2.102-1.837,3.565-1.837c2.417,0,4.376,1.959,4.376,4.376C62.148,37.3,61.202,38.756,59.804,39.5L59.804,39.5z"/>
<path fill-rule="evenodd" clip-rule="evenodd" fill="#FFFFFF" stroke="#C30D23" stroke-miterlimit="10" d="M48.035,50.191
	c3.249-0.074,4.359-3.055,3.826-4.017c-0.534-0.962-1.726-0.993-3.826-0.999c-2.099,0.006-3.291,0.037-3.824,0.999
	C43.675,47.136,44.788,50.117,48.035,50.191z"/>
</svg>
