<?xml version="1.0" encoding="utf-8"?>
<!-- Generator: Adobe Illustrator 17.0.0, net.redbear.redbearduo.data.SVG Export Plug-In . net.redbear.redbearduo.data.SVG Version: 6.00 Build 0)  -->
<svg version="1.2" baseProfile="tiny" id="Layer_1" xmlns="http://www.w3.org/2000/svg" xmlns:xlink="http://www.w3.org/1999/xlink"
	 x="0px" y="0px" width="842px" height="595px" viewBox="0 0 842 595" overflow="scroll" xml:space="preserve">
<path fill-rule="evenodd" fill="none" stroke="#FFFFFF" d="M1019.879,179.079h84.659c2.162,0,3.93,1.768,3.93,3.93v166.805
	c0,2.161-1.768,3.93-3.93,3.93h-84.659c-2.162,0-3.93-1.769-3.93-3.93V183.008C1015.949,180.847,1017.717,179.079,1019.879,179.079z
	"/>
<g>
	<path fill-rule="evenodd" fill="#FFFFFF" d="M1020.555,210.614c1.709,0,3.095,1.386,3.095,3.095c0,1.71-1.386,3.095-3.095,3.095
		c-0.863,0-1.644-0.354-2.205-0.923l-2.401,1.446v-6.441l2.111,0.992C1018.622,211.111,1019.53,210.614,1020.555,210.614z"/>
	<path fill-rule="evenodd" fill="#FFFFFF" d="M1020.555,222.163c1.709,0,3.095,1.386,3.095,3.095c0,1.709-1.386,3.095-3.095,3.095
		c-0.863,0-1.644-0.353-2.205-0.923l-2.401,1.446v-6.441l2.111,0.992C1018.622,222.66,1019.53,222.163,1020.555,222.163z"/>
	<path fill-rule="evenodd" fill="#FFFFFF" d="M1020.555,233.711c1.709,0,3.095,1.386,3.095,3.095c0,1.709-1.386,3.095-3.095,3.095
		c-0.863,0-1.644-0.354-2.205-0.923l-2.401,1.446v-6.441l2.111,0.992C1018.622,234.209,1019.53,233.711,1020.555,233.711z"/>
	<path fill-rule="evenodd" fill="#FFFFFF" d="M1020.555,245.26c1.709,0,3.095,1.386,3.095,3.095c0,1.71-1.386,3.095-3.095,3.095
		c-0.863,0-1.644-0.354-2.205-0.923l-2.401,1.446v-6.441l2.111,0.992C1018.622,245.758,1019.53,245.26,1020.555,245.26z"/>
	<path fill-rule="evenodd" fill="#FFFFFF" d="M1020.555,256.809c1.709,0,3.095,1.386,3.095,3.095c0,1.71-1.386,3.095-3.095,3.095
		c-0.863,0-1.644-0.353-2.205-0.923l-2.401,1.446v-6.441l2.111,0.992C1018.622,257.306,1019.53,256.809,1020.555,256.809z"/>
	<path fill-rule="evenodd" fill="#FFFFFF" d="M1020.555,268.358c1.709,0,3.095,1.386,3.095,3.095c0,1.709-1.386,3.095-3.095,3.095
		c-0.863,0-1.644-0.353-2.205-0.923l-2.401,1.446v-6.441l2.111,0.992C1018.622,268.855,1019.53,268.358,1020.555,268.358z"/>
	<path fill-rule="evenodd" fill="#FFFFFF" d="M1020.555,279.906c1.709,0,3.095,1.386,3.095,3.095c0,1.709-1.386,3.096-3.095,3.096
		c-0.863,0-1.644-0.354-2.205-0.924l-2.401,1.446v-6.441l2.111,0.992C1018.622,280.404,1019.53,279.906,1020.555,279.906z"/>
	<path fill-rule="evenodd" fill="#FFFFFF" d="M1020.555,291.456c1.709,0,3.095,1.386,3.095,3.095c0,1.71-1.386,3.096-3.095,3.096
		c-0.863,0-1.644-0.354-2.205-0.924l-2.401,1.446v-6.441l2.111,0.992C1018.622,291.953,1019.53,291.456,1020.555,291.456z"/>
	<path fill-rule="evenodd" fill="#FFFFFF" d="M1020.555,303.004c1.709,0,3.095,1.386,3.095,3.095c0,1.71-1.386,3.095-3.095,3.095
		c-0.863,0-1.644-0.353-2.205-0.923l-2.401,1.446v-6.441l2.111,0.992C1018.622,303.501,1019.53,303.004,1020.555,303.004z"/>
	<path fill-rule="evenodd" fill="#FFFFFF" d="M1020.555,314.553c1.709,0,3.095,1.386,3.095,3.095c0,1.709-1.386,3.096-3.095,3.096
		c-0.863,0-1.644-0.353-2.205-0.924l-2.401,1.446v-6.441l2.111,0.992C1018.622,315.05,1019.53,314.553,1020.555,314.553z"/>
	<path fill-rule="evenodd" fill="#FFFFFF" d="M1020.555,326.102c1.709,0,3.095,1.386,3.095,3.095c0,1.71-1.386,3.096-3.095,3.096
		c-0.863,0-1.644-0.353-2.205-0.924l-2.401,1.446v-6.441l2.111,0.992C1018.622,326.599,1019.53,326.102,1020.555,326.102z"/>
	<path fill-rule="evenodd" fill="#FFFFFF" d="M1020.555,337.651c1.709,0,3.095,1.386,3.095,3.095c0,1.71-1.386,3.095-3.095,3.095
		c-0.863,0-1.644-0.353-2.205-0.923l-2.401,1.446v-6.441l2.111,0.992C1018.622,338.148,1019.53,337.651,1020.555,337.651z"/>
</g>
<g>
	<path fill-rule="evenodd" fill="#FFFFFF" d="M1103.861,210.614c-1.709,0-3.095,1.386-3.095,3.095c0,1.71,1.386,3.095,3.095,3.095
		c0.863,0,1.644-0.354,2.205-0.923l2.401,1.446v-6.441l-2.111,0.992C1105.793,211.111,1104.886,210.614,1103.861,210.614z"/>
	<path fill-rule="evenodd" fill="#FFFFFF" d="M1103.861,222.163c-1.709,0-3.095,1.386-3.095,3.095c0,1.709,1.386,3.095,3.095,3.095
		c0.863,0,1.644-0.353,2.205-0.923l2.401,1.446v-6.441l-2.111,0.992C1105.793,222.66,1104.886,222.163,1103.861,222.163z"/>
	<path fill-rule="evenodd" fill="#FFFFFF" d="M1103.861,233.711c-1.709,0-3.095,1.386-3.095,3.095c0,1.709,1.386,3.095,3.095,3.095
		c0.863,0,1.644-0.354,2.205-0.923l2.401,1.446v-6.441l-2.111,0.992C1105.793,234.209,1104.886,233.711,1103.861,233.711z"/>
	<path fill-rule="evenodd" fill="#FFFFFF" d="M1103.861,245.26c-1.709,0-3.095,1.386-3.095,3.095c0,1.71,1.386,3.095,3.095,3.095
		c0.863,0,1.644-0.354,2.205-0.923l2.401,1.446v-6.441l-2.111,0.992C1105.793,245.758,1104.886,245.26,1103.861,245.26z"/>
	<path fill-rule="evenodd" fill="#FFFFFF" d="M1103.861,256.809c-1.709,0-3.095,1.386-3.095,3.095c0,1.71,1.386,3.095,3.095,3.095
		c0.863,0,1.644-0.353,2.205-0.923l2.401,1.446v-6.441l-2.111,0.992C1105.793,257.306,1104.886,256.809,1103.861,256.809z"/>
	<path fill-rule="evenodd" fill="#FFFFFF" d="M1103.861,268.358c-1.709,0-3.095,1.386-3.095,3.095c0,1.709,1.386,3.095,3.095,3.095
		c0.863,0,1.644-0.353,2.205-0.923l2.401,1.446v-6.441l-2.111,0.992C1105.793,268.855,1104.886,268.358,1103.861,268.358z"/>
	<path fill-rule="evenodd" fill="#FFFFFF" d="M1103.861,279.906c-1.709,0-3.095,1.386-3.095,3.095c0,1.709,1.386,3.096,3.095,3.096
		c0.863,0,1.644-0.354,2.205-0.924l2.401,1.446v-6.441l-2.111,0.992C1105.793,280.404,1104.886,279.906,1103.861,279.906z"/>
	<path fill-rule="evenodd" fill="#FFFFFF" d="M1103.861,291.456c-1.709,0-3.095,1.386-3.095,3.095c0,1.71,1.386,3.096,3.095,3.096
		c0.863,0,1.644-0.354,2.205-0.924l2.401,1.446v-6.441l-2.111,0.992C1105.793,291.953,1104.886,291.456,1103.861,291.456z"/>
	<path fill-rule="evenodd" fill="#FFFFFF" d="M1103.861,303.004c-1.709,0-3.095,1.386-3.095,3.095c0,1.71,1.386,3.095,3.095,3.095
		c0.863,0,1.644-0.353,2.205-0.923l2.401,1.446v-6.441l-2.111,0.992C1105.793,303.501,1104.886,303.004,1103.861,303.004z"/>
	<path fill-rule="evenodd" fill="#FFFFFF" d="M1103.861,314.553c-1.709,0-3.095,1.386-3.095,3.095c0,1.709,1.386,3.096,3.095,3.096
		c0.863,0,1.644-0.353,2.205-0.924l2.401,1.446v-6.441l-2.111,0.992C1105.793,315.05,1104.886,314.553,1103.861,314.553z"/>
	<path fill-rule="evenodd" fill="#FFFFFF" d="M1103.861,326.102c-1.709,0-3.095,1.386-3.095,3.095c0,1.71,1.386,3.096,3.095,3.096
		c0.863,0,1.644-0.353,2.205-0.924l2.401,1.446v-6.441l-2.111,0.992C1105.793,326.599,1104.886,326.102,1103.861,326.102z"/>
	<path fill-rule="evenodd" fill="#FFFFFF" d="M1103.861,337.651c-1.709,0-3.095,1.386-3.095,3.095c0,1.71,1.386,3.095,3.095,3.095
		c0.863,0,1.644-0.353,2.205-0.923l2.401,1.446v-6.441l-2.111,0.992C1105.793,338.148,1104.886,337.651,1103.861,337.651z"/>
</g>
<path fill-rule="evenodd" fill="none" stroke="#FFFFFF" d="M1102.814,187.067c0.331,0.87,0.517,1.811,0.517,2.795
	c0,4.218-3.419,7.637-7.637,7.637s-7.637-3.419-7.637-7.637c0-0.988,0.188-1.933,0.536-2.801c-0.831-0.444-1.403-1.326-1.403-2.341
	c0-1.462,1.186-2.647,2.647-2.647c0.885,0,1.668,0.434,2.149,1.105c1.099-0.606,2.363-0.954,3.708-0.954
	c1.354,0,2.625,0.352,3.735,0.959c0.488-0.677,1.271-1.111,2.156-1.111c1.462,0,2.647,1.185,2.647,2.647
	C1104.231,185.735,1103.66,186.617,1102.814,187.067L1102.814,187.067z"/>
<path fill-rule="evenodd" fill="#FFFFFF" d="M1095.694,193.536c1.965-0.046,2.638-1.849,2.314-2.431
	c-0.323-0.582-1.044-0.601-2.314-0.605c-1.271,0.004-1.991,0.023-2.314,0.605C1093.057,191.687,1093.729,193.49,1095.694,193.536z"
	/>
<rect x="1034.15" y="196.328" fill-rule="evenodd" fill="none" stroke="#FFFFFF" stroke-miterlimit="10" width="54.708" height="54.792"/>
<rect x="1037.448" y="199.631" fill-rule="evenodd" fill="none" stroke="#FFFFFF" stroke-miterlimit="10" width="48.112" height="48.186"/>
<g>
	<path fill-rule="evenodd" fill="#FFFFFF" d="M1043.419,251.569c0.002-0.037,0.003-0.074,0.003-0.111
		c0-0.945-0.578-1.712-1.29-1.712c-0.713,0-1.291,0.766-1.291,1.712c0,0.037,0.001,0.074,0.003,0.111H1043.419z"/>
	<rect x="1040.844" y="251.569" fill-rule="evenodd" fill="#FFFFFF" width="2.575" height="1.311"/>
	<path fill-rule="evenodd" fill="#FFFFFF" d="M1047.434,251.569c0.002-0.037,0.003-0.074,0.003-0.111
		c0-0.945-0.578-1.712-1.29-1.712s-1.291,0.766-1.291,1.712c0,0.037,0.001,0.074,0.003,0.111H1047.434z"/>
	<rect x="1044.859" y="251.569" fill-rule="evenodd" fill="#FFFFFF" width="2.575" height="1.311"/>
	<path fill-rule="evenodd" fill="#FFFFFF" d="M1051.45,251.569c0.001-0.037,0.002-0.074,0.002-0.111c0-0.945-0.578-1.712-1.29-1.712
		s-1.29,0.766-1.29,1.712c0,0.037,0.001,0.074,0.003,0.111H1051.45z"/>
	<rect x="1048.874" y="251.569" fill-rule="evenodd" fill="#FFFFFF" width="2.575" height="1.311"/>
	<path fill-rule="evenodd" fill="#FFFFFF" d="M1055.465,251.569c0.001-0.037,0.003-0.074,0.003-0.111
		c0-0.945-0.578-1.712-1.29-1.712c-0.713,0-1.291,0.766-1.291,1.712c0,0.037,0.001,0.074,0.003,0.111H1055.465z"/>
	<rect x="1052.89" y="251.569" fill-rule="evenodd" fill="#FFFFFF" width="2.575" height="1.311"/>
	<path fill-rule="evenodd" fill="#FFFFFF" d="M1059.48,251.569c0.002-0.037,0.003-0.074,0.003-0.111c0-0.945-0.578-1.712-1.29-1.712
		s-1.291,0.766-1.291,1.712c0,0.037,0.001,0.074,0.003,0.111H1059.48z"/>
	<rect x="1056.905" y="251.569" fill-rule="evenodd" fill="#FFFFFF" width="2.575" height="1.311"/>
	<path fill-rule="evenodd" fill="#FFFFFF" d="M1063.495,251.569c0.002-0.037,0.003-0.074,0.003-0.111
		c0-0.945-0.578-1.712-1.29-1.712s-1.29,0.766-1.29,1.712c0,0.037,0.001,0.074,0.003,0.111H1063.495z"/>
	<rect x="1060.92" y="251.569" fill-rule="evenodd" fill="#FFFFFF" width="2.575" height="1.311"/>
	<path fill-rule="evenodd" fill="#FFFFFF" d="M1067.511,251.569c0.001-0.037,0.003-0.074,0.003-0.111
		c0-0.945-0.578-1.712-1.291-1.712s-1.29,0.766-1.29,1.712c0,0.037,0.001,0.074,0.003,0.111H1067.511z"/>
	<rect x="1064.935" y="251.569" fill-rule="evenodd" fill="#FFFFFF" width="2.575" height="1.311"/>
	<path fill-rule="evenodd" fill="#FFFFFF" d="M1071.526,251.569c0.001-0.037,0.003-0.074,0.003-0.111
		c0-0.945-0.578-1.712-1.291-1.712c-0.712,0-1.29,0.766-1.29,1.712c0,0.037,0.001,0.074,0.003,0.111H1071.526z"/>
	<rect x="1068.951" y="251.569" fill-rule="evenodd" fill="#FFFFFF" width="2.575" height="1.311"/>
	<path fill-rule="evenodd" fill="#FFFFFF" d="M1075.541,251.569c0.002-0.037,0.003-0.074,0.003-0.111
		c0-0.945-0.578-1.712-1.29-1.712s-1.29,0.766-1.29,1.712c0,0.037,0.001,0.074,0.002,0.111H1075.541z"/>
	<rect x="1072.966" y="251.569" fill-rule="evenodd" fill="#FFFFFF" width="2.575" height="1.311"/>
	<path fill-rule="evenodd" fill="#FFFFFF" d="M1079.557,251.569c0.001-0.037,0.002-0.074,0.002-0.111
		c0-0.945-0.578-1.712-1.29-1.712s-1.29,0.766-1.29,1.712c0,0.037,0.001,0.074,0.003,0.111H1079.557z"/>
	<rect x="1076.981" y="251.569" fill-rule="evenodd" fill="#FFFFFF" width="2.575" height="1.311"/>
	<path fill-rule="evenodd" fill="#FFFFFF" d="M1083.572,251.569c0.001-0.037,0.003-0.074,0.003-0.111
		c0-0.945-0.578-1.712-1.291-1.712c-0.712,0-1.29,0.766-1.29,1.712c0,0.037,0.001,0.074,0.003,0.111H1083.572z"/>
	<rect x="1080.996" y="251.569" fill-rule="evenodd" fill="#FFFFFF" width="2.575" height="1.311"/>
</g>
<g>
	<path fill-rule="evenodd" fill="#FFFFFF" d="M1043.419,195.77c0.002,0.039,0.003,0.078,0.003,0.117c0,1.002-0.578,1.814-1.29,1.814
		c-0.713,0-1.291-0.812-1.291-1.814c0-0.039,0.002-0.078,0.003-0.117H1043.419z"/>
	<rect x="1040.844" y="194.38" fill-rule="evenodd" fill="#FFFFFF" width="2.575" height="1.39"/>
	<path fill-rule="evenodd" fill="#FFFFFF" d="M1047.434,195.77c0.002,0.039,0.003,0.078,0.003,0.117c0,1.002-0.578,1.814-1.29,1.814
		s-1.291-0.812-1.291-1.814c0-0.039,0.001-0.078,0.003-0.117H1047.434z"/>
	<rect x="1044.86" y="194.38" fill-rule="evenodd" fill="#FFFFFF" width="2.575" height="1.39"/>
	<path fill-rule="evenodd" fill="#FFFFFF" d="M1051.45,195.77c0.001,0.039,0.002,0.078,0.002,0.117c0,1.002-0.578,1.814-1.29,1.814
		c-0.712,0-1.29-0.812-1.29-1.814c0-0.039,0.001-0.078,0.003-0.117H1051.45z"/>
	<rect x="1048.875" y="194.38" fill-rule="evenodd" fill="#FFFFFF" width="2.575" height="1.39"/>
	<path fill-rule="evenodd" fill="#FFFFFF" d="M1055.465,195.77c0.001,0.039,0.003,0.078,0.003,0.117c0,1.002-0.578,1.814-1.29,1.814
		c-0.713,0-1.291-0.812-1.291-1.814c0-0.039,0.001-0.078,0.003-0.117H1055.465z"/>
	<rect x="1052.89" y="194.38" fill-rule="evenodd" fill="#FFFFFF" width="2.575" height="1.39"/>
	<path fill-rule="evenodd" fill="#FFFFFF" d="M1059.48,195.77c0.002,0.039,0.003,0.078,0.003,0.117c0,1.002-0.578,1.814-1.29,1.814
		s-1.291-0.812-1.291-1.814c0-0.039,0.001-0.078,0.003-0.117H1059.48z"/>
	<rect x="1056.906" y="194.38" fill-rule="evenodd" fill="#FFFFFF" width="2.575" height="1.39"/>
	<path fill-rule="evenodd" fill="#FFFFFF" d="M1063.495,195.77c0.002,0.039,0.003,0.078,0.003,0.117c0,1.002-0.578,1.814-1.29,1.814
		c-0.712,0-1.29-0.812-1.29-1.814c0-0.039,0.001-0.078,0.003-0.117H1063.495z"/>
	<rect x="1060.921" y="194.38" fill-rule="evenodd" fill="#FFFFFF" width="2.575" height="1.39"/>
	<path fill-rule="evenodd" fill="#FFFFFF" d="M1067.511,195.77c0.001,0.039,0.003,0.078,0.003,0.117
		c0,1.002-0.578,1.814-1.291,1.814s-1.29-0.812-1.29-1.814c0-0.039,0.001-0.078,0.003-0.117H1067.511z"/>
	<rect x="1064.936" y="194.38" fill-rule="evenodd" fill="#FFFFFF" width="2.575" height="1.39"/>
	<path fill-rule="evenodd" fill="#FFFFFF" d="M1071.526,195.77c0.001,0.039,0.003,0.078,0.003,0.117c0,1.002-0.578,1.814-1.29,1.814
		c-0.712,0-1.29-0.812-1.29-1.814c0-0.039,0.001-0.078,0.003-0.117H1071.526z"/>
	<rect x="1068.951" y="194.38" fill-rule="evenodd" fill="#FFFFFF" width="2.575" height="1.39"/>
	<path fill-rule="evenodd" fill="#FFFFFF" d="M1075.541,195.77c0.002,0.039,0.003,0.078,0.003,0.117c0,1.002-0.578,1.814-1.29,1.814
		c-0.712,0-1.29-0.812-1.29-1.814c0-0.039,0.001-0.078,0.002-0.117H1075.541z"/>
	<rect x="1072.966" y="194.38" fill-rule="evenodd" fill="#FFFFFF" width="2.575" height="1.39"/>
	<path fill-rule="evenodd" fill="#FFFFFF" d="M1079.557,195.77c0.001,0.039,0.002,0.078,0.002,0.117c0,1.002-0.578,1.814-1.29,1.814
		s-1.29-0.812-1.29-1.814c0-0.039,0.001-0.078,0.003-0.117H1079.557z"/>
	<rect x="1076.982" y="194.38" fill-rule="evenodd" fill="#FFFFFF" width="2.575" height="1.39"/>
	<path fill-rule="evenodd" fill="#FFFFFF" d="M1083.572,195.77c0.001,0.039,0.003,0.078,0.003,0.117
		c0,1.002-0.578,1.814-1.291,1.814c-0.712,0-1.29-0.812-1.29-1.814c0-0.039,0.001-0.078,0.003-0.117H1083.572z"/>
	<rect x="1080.997" y="194.38" fill-rule="evenodd" fill="#FFFFFF" width="2.575" height="1.39"/>
</g>
<path fill-rule="evenodd" fill="none" stroke="#FFFFFF" stroke-miterlimit="10" d="M1043.914,355.928
	c-0.18,0.061-0.341,0.179-0.456,0.345l-1.711,2.487c-0.283,0.411-0.17,0.973,0.25,1.249l0,0c0.42,0.276,0.994,0.166,1.277-0.244
	l1.475-2.144c0.191,0.09,0.404,0.14,0.628,0.14h0.45v1.25c0,0.733,0.585,1.333,1.301,1.333h28.15c0.715,0,1.3-0.6,1.3-1.333v-1.25
	h0.07l1.379,2.005c0.282,0.41,0.857,0.521,1.276,0.244l0,0c0.42-0.276,0.532-0.838,0.25-1.249l-1.224-1.779
	c0.103-0.195,0.161-0.417,0.161-0.65v-21.336c0-0.787-0.658-1.431-1.463-1.431h-31.651c-0.804,0-1.462,0.643-1.462,1.431V355.928z"
	/>
<path fill-rule="evenodd" fill="#FFFFFF" d="M1070.058,333.564h-2.241v6.135h1.426h0.814h3.217c0.617,0,1.121-0.492,1.121-1.096l0,0
	c0-0.603-0.504-1.096-1.121-1.096h-3.217V333.564z"/>
<path fill-rule="evenodd" fill="#FFFFFF" d="M1052.416,333.564h2.241v6.135h-1.426h-0.815h-3.217c-0.616,0-1.12-0.492-1.12-1.096
	l0,0c0-0.603,0.504-1.096,1.12-1.096h3.217V333.564z"/>
<g>
	<path fill-rule="evenodd" fill="#FFFFFF" d="M1072.369,346.158L1072.369,346.158c0.863,0,1.568,0.69,1.568,1.534v2.11
		c0.429,0.403,0.696,0.97,0.696,1.597c0,1.224-1.014,2.215-2.264,2.215c-1.251,0-2.264-0.991-2.264-2.215
		c0-0.627,0.267-1.193,0.696-1.597v-2.11C1070.801,346.848,1071.506,346.158,1072.369,346.158z"/>
	<path fill-rule="evenodd" fill="#FFFFFF" d="M1071.716,354.07h1.307c0.394,0,0.715,0.321,0.715,0.715l0,0
		c0,0.393-0.321,0.715-0.715,0.715h-1.307c-0.393,0-0.715-0.321-0.715-0.715l0,0C1071.001,354.391,1071.323,354.07,1071.716,354.07z
		"/>
</g>
<g>
	<path fill-rule="evenodd" fill="#FFFFFF" d="M1050.187,346.158L1050.187,346.158c-0.863,0-1.569,0.69-1.569,1.534v2.11
		c-0.428,0.403-0.695,0.97-0.695,1.597c0,1.224,1.014,2.215,2.264,2.215s2.264-0.991,2.264-2.215c0-0.627-0.267-1.193-0.696-1.597
		v-2.11C1051.756,346.848,1051.05,346.158,1050.187,346.158z"/>
	<path fill-rule="evenodd" fill="#FFFFFF" d="M1050.84,354.07h-1.306c-0.393,0-0.715,0.321-0.715,0.715l0,0
		c0,0.393,0.322,0.715,0.715,0.715h1.306c0.393,0,0.715-0.321,0.715-0.715l0,0C1051.556,354.391,1051.234,354.07,1050.84,354.07z"/>
</g>
<g>
	<path fill-rule="evenodd" fill="#FFFFFF" d="M1089.537,242.511c-0.042-0.002-0.085-0.003-0.127-0.003
		c-1.084,0-1.964,0.578-1.964,1.29c0,0.713,0.879,1.291,1.964,1.291c0.042,0,0.085-0.001,0.127-0.003V242.511z"/>
	<rect x="1089.537" y="242.511" fill-rule="evenodd" fill="#FFFFFF" width="1.504" height="2.575"/>
	<path fill-rule="evenodd" fill="#FFFFFF" d="M1089.537,238.495c-0.042-0.002-0.085-0.003-0.127-0.003
		c-1.084,0-1.964,0.578-1.964,1.29c0,0.712,0.879,1.29,1.964,1.29c0.042,0,0.085-0.001,0.127-0.003V238.495z"/>
	<rect x="1089.537" y="238.495" fill-rule="evenodd" fill="#FFFFFF" width="1.504" height="2.575"/>
	<path fill-rule="evenodd" fill="#FFFFFF" d="M1089.537,234.48c-0.042-0.002-0.085-0.003-0.127-0.003
		c-1.084,0-1.964,0.578-1.964,1.29s0.879,1.29,1.964,1.29c0.042,0,0.085-0.001,0.127-0.003V234.48z"/>
	<rect x="1089.537" y="234.48" fill-rule="evenodd" fill="#FFFFFF" width="1.504" height="2.575"/>
	<path fill-rule="evenodd" fill="#FFFFFF" d="M1089.537,230.465c-0.042-0.001-0.085-0.003-0.127-0.003
		c-1.084,0-1.964,0.578-1.964,1.29c0,0.713,0.879,1.291,1.964,1.291c0.042,0,0.085-0.001,0.127-0.003V230.465z"/>
	<rect x="1089.537" y="230.465" fill-rule="evenodd" fill="#FFFFFF" width="1.504" height="2.575"/>
	<path fill-rule="evenodd" fill="#FFFFFF" d="M1089.537,226.45c-0.042-0.002-0.085-0.003-0.127-0.003
		c-1.084,0-1.964,0.578-1.964,1.29c0,0.712,0.879,1.291,1.964,1.291c0.042,0,0.085-0.001,0.127-0.003V226.45z"/>
	<rect x="1089.537" y="226.45" fill-rule="evenodd" fill="#FFFFFF" width="1.504" height="2.575"/>
	<path fill-rule="evenodd" fill="#FFFFFF" d="M1089.537,222.434c-0.042-0.002-0.085-0.003-0.127-0.003
		c-1.084,0-1.964,0.578-1.964,1.29s0.879,1.29,1.964,1.29c0.042,0,0.085-0.001,0.127-0.003V222.434z"/>
	<rect x="1089.537" y="222.434" fill-rule="evenodd" fill="#FFFFFF" width="1.504" height="2.575"/>
	<path fill-rule="evenodd" fill="#FFFFFF" d="M1089.537,218.419c-0.042-0.001-0.085-0.003-0.127-0.003
		c-1.084,0-1.964,0.578-1.964,1.29s0.879,1.29,1.964,1.29c0.042,0,0.085-0.001,0.127-0.003V218.419z"/>
	<rect x="1089.537" y="218.419" fill-rule="evenodd" fill="#FFFFFF" width="1.504" height="2.575"/>
	<path fill-rule="evenodd" fill="#FFFFFF" d="M1089.537,214.404c-0.042-0.001-0.085-0.003-0.127-0.003
		c-1.084,0-1.964,0.578-1.964,1.29c0,0.712,0.879,1.29,1.964,1.29c0.042,0,0.085-0.001,0.127-0.003V214.404z"/>
	<rect x="1089.537" y="214.404" fill-rule="evenodd" fill="#FFFFFF" width="1.504" height="2.575"/>
	<path fill-rule="evenodd" fill="#FFFFFF" d="M1089.537,210.389c-0.042-0.002-0.085-0.003-0.127-0.003
		c-1.084,0-1.964,0.578-1.964,1.29s0.879,1.29,1.964,1.29c0.042,0,0.085-0.001,0.127-0.002V210.389z"/>
	<rect x="1089.537" y="210.389" fill-rule="evenodd" fill="#FFFFFF" width="1.504" height="2.575"/>
	<path fill-rule="evenodd" fill="#FFFFFF" d="M1089.537,206.373c-0.042-0.001-0.085-0.002-0.127-0.002
		c-1.084,0-1.964,0.578-1.964,1.29c0,0.712,0.879,1.29,1.964,1.29c0.042,0,0.085-0.001,0.127-0.003V206.373z"/>
	<rect x="1089.537" y="206.373" fill-rule="evenodd" fill="#FFFFFF" width="1.504" height="2.575"/>
	<path fill-rule="evenodd" fill="#FFFFFF" d="M1089.537,202.358c-0.042-0.001-0.085-0.003-0.127-0.003
		c-1.084,0-1.964,0.578-1.964,1.29c0,0.712,0.879,1.29,1.964,1.29c0.042,0,0.085-0.001,0.127-0.003V202.358z"/>
	<rect x="1089.537" y="202.358" fill-rule="evenodd" fill="#FFFFFF" width="1.504" height="2.575"/>
</g>
<g>
	<path fill-rule="evenodd" fill="#FFFFFF" d="M1033.8,242.513c0.038-0.002,0.075-0.003,0.113-0.003c0.967,0,1.752,0.578,1.752,1.29
		c0,0.713-0.784,1.291-1.752,1.291c-0.038,0-0.076-0.001-0.113-0.003V242.513z"/>
	<rect x="1032.458" y="242.513" fill-rule="evenodd" fill="#FFFFFF" width="1.342" height="2.575"/>
	<path fill-rule="evenodd" fill="#FFFFFF" d="M1033.8,238.498c0.038-0.002,0.075-0.003,0.113-0.003c0.967,0,1.752,0.578,1.752,1.29
		s-0.784,1.29-1.752,1.29c-0.038,0-0.076-0.001-0.113-0.003V238.498z"/>
	<rect x="1032.458" y="238.498" fill-rule="evenodd" fill="#FFFFFF" width="1.342" height="2.575"/>
	<path fill-rule="evenodd" fill="#FFFFFF" d="M1033.8,234.482c0.038-0.001,0.075-0.003,0.113-0.003c0.967,0,1.752,0.578,1.752,1.29
		s-0.784,1.29-1.752,1.29c-0.038,0-0.076-0.001-0.113-0.003V234.482z"/>
	<rect x="1032.458" y="234.483" fill-rule="evenodd" fill="#FFFFFF" width="1.342" height="2.575"/>
	<path fill-rule="evenodd" fill="#FFFFFF" d="M1033.8,230.467c0.038-0.001,0.075-0.003,0.113-0.003c0.967,0,1.752,0.578,1.752,1.29
		c0,0.713-0.784,1.291-1.752,1.291c-0.038,0-0.076-0.001-0.113-0.003V230.467z"/>
	<rect x="1032.458" y="230.468" fill-rule="evenodd" fill="#FFFFFF" width="1.342" height="2.575"/>
	<path fill-rule="evenodd" fill="#FFFFFF" d="M1033.8,226.452c0.038-0.002,0.075-0.003,0.113-0.003c0.967,0,1.752,0.578,1.752,1.29
		s-0.784,1.29-1.752,1.29c-0.038,0-0.076-0.001-0.113-0.003V226.452z"/>
	<rect x="1032.458" y="226.452" fill-rule="evenodd" fill="#FFFFFF" width="1.342" height="2.575"/>
	<path fill-rule="evenodd" fill="#FFFFFF" d="M1033.8,222.437c0.038-0.002,0.075-0.003,0.113-0.003c0.967,0,1.752,0.578,1.752,1.29
		s-0.784,1.29-1.752,1.29c-0.038,0-0.076-0.001-0.113-0.003V222.437z"/>
	<rect x="1032.458" y="222.437" fill-rule="evenodd" fill="#FFFFFF" width="1.342" height="2.575"/>
	<path fill-rule="evenodd" fill="#FFFFFF" d="M1033.8,218.421c0.038-0.001,0.075-0.003,0.113-0.003c0.967,0,1.752,0.578,1.752,1.29
		s-0.784,1.29-1.752,1.29c-0.038,0-0.076-0.001-0.113-0.003V218.421z"/>
	<rect x="1032.458" y="218.422" fill-rule="evenodd" fill="#FFFFFF" width="1.342" height="2.575"/>
	<path fill-rule="evenodd" fill="#FFFFFF" d="M1033.8,214.406c0.038-0.001,0.075-0.003,0.113-0.003c0.967,0,1.752,0.578,1.752,1.29
		c0,0.712-0.784,1.29-1.752,1.29c-0.038,0-0.076-0.001-0.113-0.003V214.406z"/>
	<rect x="1032.458" y="214.407" fill-rule="evenodd" fill="#FFFFFF" width="1.342" height="2.575"/>
	<path fill-rule="evenodd" fill="#FFFFFF" d="M1033.8,210.391c0.038-0.002,0.075-0.003,0.113-0.003c0.967,0,1.752,0.578,1.752,1.29
		s-0.784,1.29-1.752,1.29c-0.038,0-0.076-0.001-0.113-0.002V210.391z"/>
	<rect x="1032.458" y="210.391" fill-rule="evenodd" fill="#FFFFFF" width="1.342" height="2.575"/>
	<path fill-rule="evenodd" fill="#FFFFFF" d="M1033.8,206.375c0.038-0.001,0.075-0.002,0.113-0.002c0.967,0,1.752,0.578,1.752,1.29
		s-0.784,1.29-1.752,1.29c-0.038,0-0.076-0.001-0.113-0.003V206.375z"/>
	<rect x="1032.458" y="206.376" fill-rule="evenodd" fill="#FFFFFF" width="1.342" height="2.575"/>
	<path fill-rule="evenodd" fill="#FFFFFF" d="M1033.8,202.36c0.038-0.001,0.075-0.003,0.113-0.003c0.967,0,1.752,0.578,1.752,1.29
		c0,0.712-0.784,1.29-1.752,1.29c-0.038,0-0.076-0.001-0.113-0.003V202.36z"/>
	<rect x="1032.458" y="202.361" fill-rule="evenodd" fill="#FFFFFF" width="1.342" height="2.575"/>
</g>
</svg>
